# xmcd
#
# Track frame offsets:
#	150
#	15752
#	31999
#
# Disc length: 702 seconds
# Revision: 0
# Processed by: cddbd v1.5.2PL0 Copyright (c) Steve Scherf et al.
# Submitted via: dBpowerAMP V12.0
#
DISCID=1102bc03
DTITLE=Various Artist - Dyson Stringer Cloher EP
DYEAR=2013
DGENRE=Blues Female
TTITLE0=Mia Dyson - Crazy Horse
TTITLE1=Liz Stringer - You Change Me
TTITLE2=Jen Cloher - Save Me From What I Want
EXTD=
EXTT0=
EXTT1=
EXTT2=
PLAYORDER=
